<svg xmlns="http://www.w3.org/2000/svg" viewBox="0 0 495.51 84.49"><defs><style>.cls-1{fill:#fff;}.cls-2{fill:#b90c0c;}</style></defs><title>Asset 8</title><g id="Layer_2" data-name="Layer 2"><g id="Footer"><path class="cls-1" d="M10,40H4.66L3.31,43.69H5.17v1.48H0V43.69H1.59L6.72,30.34H9L13.8,43.69h2v1.48H8.94V43.69h2.33ZM5.15,38.7H9.54l-2.08-6H7.37Z"/><path class="cls-1" d="M23.28,43.69h2.27V31.91H23.28V30.43h6.09l3.75,10.91h.06L37,30.43h6v1.48H40.6V43.69H43v1.48H36.32V43.69h2V32.09h-.2L33.36,45.17H32.2L27.4,32.09h-.2v11.6h2.11v1.48h-6Z"/><path class="cls-1" d="M52.26,43.69h2.48V31.91H52.26V30.43h13v4.8H64.21c-.8-2.65-1-3.32-2.75-3.32H57.05V37h1.54c1.66,0,1.86-.22,2.29-2.26h1.18v5.87H60.88c-.38-2.13-.63-2.35-2.29-2.35H57.05v5.46h4.32c2,0,2.22-.69,3.05-3.76h1.07v5.24H52.26Z"/><path class="cls-1" d="M81,43.69h2.42v1.48H76.23V43.69h2.49V31.91H76.23V30.43h7.21c4.5,0,5.71,2,5.71,3.83,0,1.53-.89,3.12-3.74,3.59v.2c2.29.49,3,1.61,3.07,3.16l.14,1.63c.06.74.26,1,.67,1s.62-.29,1-.94l1,.47a2.72,2.72,0,0,1-2.51,2,2.4,2.4,0,0,1-2.62-2.65l0-1.79c0-1.52-.38-2.3-2.5-2.3H81Zm2.38-6.36c2.39,0,3.11-1.07,3.11-2.89,0-1.61-.72-2.53-2.84-2.53H81v5.42Z"/><path class="cls-1" d="M101.3,43.69h2.49V31.91H101.3V30.43h7.28v1.48h-2.49V43.69h2.49v1.48H101.3Z"/><path class="cls-1" d="M118.56,37.76c0-4.17,3.18-7.68,7-7.68a5.34,5.34,0,0,1,4.1,1.72l.4-1.66h1.48v5.78h-1.34c-1-2.66-2.53-4.37-4.5-4.37-2.49,0-4.42,1.73-4.42,6.07,0,4,1.68,6.34,4.68,6.34,2.67,0,4.22-2.13,4.55-4.68h1.59c-.38,4-3,6.25-6.49,6.25C121.36,45.53,118.56,42.08,118.56,37.76Z"/><path class="cls-1" d="M151.26,40h-5.33l-1.35,3.69h1.86v1.48h-5.17V43.69h1.59L148,30.34h2.26l4.81,13.35h2v1.48h-6.9V43.69h2.33Zm-4.84-1.3h4.39l-2.09-6h-.08Z"/><path class="cls-1" d="M171.14,33.41h-.2V43.69h2.33v1.48H167V43.69h2.26V31.91H167V30.43h4.88l7.42,10.75h.2V31.91h-2.33V30.43h6.25v1.48h-2.26V45.53h-1.71Z"/><path class="cls-1" d="M313.33,40.28h1.34c1.64,3,2.67,4,4.75,4,1.75,0,2.8-.89,2.8-2.44,0-1.81-1.9-2.31-3.92-2.89-2.3-.65-4.77-1.43-4.77-4.45a4.43,4.43,0,0,1,4.64-4.28,4.9,4.9,0,0,1,3.63,1.57l.47-1.5h1.47v5.1H322.4c-1.37-2.91-2.66-3.78-4.34-3.78a2.14,2.14,0,0,0-2.33,2.24c0,2,2,2.44,4,3,2.26.55,4.66,1.25,4.66,4.23a4.72,4.72,0,0,1-5,4.61,5.42,5.42,0,0,1-4.09-1.61l-.54,1.54h-1.48Z"/><path class="cls-1" d="M334.33,38a7.46,7.46,0,0,1,7.21-7.72c4,0,7.21,3.2,7.21,7.72a7.44,7.44,0,0,1-7.21,7.73C337.53,45.68,334.33,42.46,334.33,38Zm11.74,0c0-3.91-1.59-6.24-4.53-6.24S337,34.06,337,38s1.59,6.25,4.52,6.25S346.07,41.87,346.07,38Z"/><path class="cls-1" d="M359.82,40.87V32.06h-2.15V30.59h6.65v1.47h-2.2v8.07c0,2.84,1.44,3.94,4.17,3.94A3.5,3.5,0,0,0,369,43c.76-.77.92-1.75.92-3.43V32.06h-2.31V30.59h6.07v1.47h-2.1v8.81c0,2.53-2.08,4.81-5.94,4.81S359.82,43.69,359.82,40.87Z"/><path class="cls-1" d="M388.41,43.84h2.42v1.48h-7.21V43.84h2.49V32.06h-2.49V30.59h7.21c4.5,0,5.71,2,5.71,3.83,0,1.52-.89,3.11-3.74,3.58v.2c2.29.49,3,1.61,3.07,3.16L396,43c.07.74.27,1,.68,1s.62-.29,1-.94l1,.47a2.72,2.72,0,0,1-2.51,2,2.4,2.4,0,0,1-2.62-2.64l0-1.79c0-1.53-.38-2.31-2.5-2.31h-2.56Zm2.38-6.36c2.39,0,3.11-1.07,3.11-2.88,0-1.62-.72-2.54-2.84-2.54h-2.65v5.42Z"/><path class="cls-1" d="M407.82,37.91c0-4.17,3.18-7.68,7-7.68A5.32,5.32,0,0,1,418.88,32l.41-1.65h1.47v5.77h-1.34c-1-2.66-2.53-4.36-4.5-4.36-2.49,0-4.41,1.72-4.41,6.07,0,4,1.68,6.33,4.68,6.33,2.66,0,4.21-2.12,4.54-4.68h1.59c-.38,4-3,6.25-6.49,6.25C410.62,45.68,407.82,42.23,407.82,37.91Z"/><path class="cls-1" d="M434.23,43.84h2.49V32.06h-2.49V30.59h7.28v1.47H439V43.84h2.49v1.48h-7.28Z"/><path class="cls-1" d="M458,33.57h-.2V43.84h2.33v1.48h-6.25V43.84h2.27V32.06h-2.27V30.59h4.89l7.41,10.75h.2V32.06h-2.33V30.59h6.25v1.47h-2.26V45.68h-1.7Z"/><path class="cls-1" d="M487.4,45.68c-4.21,0-7-3.45-7-7.77,0-4.17,3.18-7.68,7-7.68a5.34,5.34,0,0,1,4.1,1.72l.4-1.65h1.48v5.77H492c-1-2.66-2.53-4.36-4.5-4.36-2.48,0-4.41,1.72-4.41,6.07,0,4,1.68,6.33,4.68,6.33a3.2,3.2,0,0,0,3-1.77,6,6,0,0,0,.47-2.39v-.56h-2.71V37.91h7v1.48h-2v6.09h-1.43l-.63-2A4.81,4.81,0,0,1,487.4,45.68Z"/><path class="cls-1" d="M279.1,6.63l-3.49-1.35a78.21,78.21,0,0,0-56.5,0L215.6,6.63a6.38,6.38,0,0,0-4.08,5.94V46.29c0,15,30,36,30,36a9.22,9.22,0,0,0,5.79,2.18h.09a9.24,9.24,0,0,0,5.8-2.18s30-21,30-36V12.57A6.35,6.35,0,0,0,279.1,6.63Zm-.55,8.84v6.76h-5.66V9.48l2.1.82A5.57,5.57,0,0,1,278.55,15.47Zm-11.34-8V22.23h-5.67V6c1.52.32,3,.69,4.53,1.12C266.44,7.26,266.83,7.39,267.21,7.51ZM255.86,5.07V22.23h-5.67V4.59c1.14,0,2.27.12,3.4.23C254.35,4.89,255.11,5,255.86,5.07Zm-11.35-.48V22.23h-5.66V5.07c.74-.09,1.5-.18,2.26-.25C242.24,4.71,243.38,4.64,244.51,4.59ZM233.17,6V22.23H227.5V7.49c.37-.12.76-.23,1.13-.33C230.13,6.71,231.64,6.34,233.17,6ZM219.69,10.3l2.13-.82V22.23h-5.67V15.47A5.55,5.55,0,0,1,219.69,10.3Zm29.84,32.48h0a3.87,3.87,0,0,0-2.36,2v0a2.61,2.61,0,0,1-3.53,1.1,2.65,2.65,0,0,1-1.07-1,.44.44,0,0,1,.25-.64l4.35-1.36v0l2.2-.67a.31.31,0,0,1,.4.21A.34.34,0,0,1,249.53,42.78Zm29,3.31c0,6.4-6.22,14-12.6,20.18-1.56-6.58-3.12-13.26-3.19-15a1.36,1.36,0,0,1,1.72-1.39l3.68,1-5.83-7.81a8.66,8.66,0,0,1-1.44-7.3,9.93,9.93,0,0,0,.08-5.18,25,25,0,0,1-6.51,6.23,5,5,0,0,0,.62-4.12s-1.47,3.18-6.91,5l-.41.12-.07,0c-2.24.68-4.88,1.19-7.43,1.77a1.81,1.81,0,0,1-.37.09c-3.9.91-7.56,2-9.15,3.85-2.72,3.6-2.64,9-2.45,11.44a.46.46,0,0,0,.85.17c3.1-4.52,9.11-4.52,9.11-4.52l1.85,3.14a7,7,0,0,1,.3,5.41l-3.87,13.93c-7.69-6.2-20.38-17.87-20.38-27V27.9h62.4Z"/><path class="cls-2" d="M228.63,7.16c-.37.1-.76.21-1.13.33V22.23h5.67V6C231.64,6.34,230.13,6.71,228.63,7.16Z"/><path class="cls-2" d="M219.69,10.3a5.55,5.55,0,0,0-3.54,5.17v6.76h5.67V9.48Z"/><path class="cls-2" d="M241.11,4.82c-.76.07-1.52.16-2.26.25V22.23h5.66V4.59C243.38,4.64,242.24,4.71,241.11,4.82Z"/><path class="cls-2" d="M266.07,7.16c-1.48-.43-3-.8-4.53-1.12V22.23h5.67V7.51C266.83,7.39,266.44,7.26,266.07,7.16Z"/><path class="cls-2" d="M275,10.3l-2.1-.82V22.23h5.66V15.47A5.57,5.57,0,0,0,275,10.3Z"/><path class="cls-2" d="M253.59,4.82c-1.13-.11-2.26-.18-3.4-.23V22.23h5.67V5.07C255.12,5,254.35,4.89,253.59,4.82Z"/></g></g></svg>